<svg width="16" height="16" viewBox="0 0 16 16" fill="none" xmlns="http://www.w3.org/2000/svg">
<mask id="mask0_45_44" style="mask-type:alpha" maskUnits="userSpaceOnUse" x="0" y="0" width="16" height="16">
<rect width="16" height="16" fill="#D9D9D9"/>
</mask>
<g mask="url(#mask0_45_44)">
<path d="M9.71429 16V14.1735C11.0794 13.8001 12.1825 13.0431 13.0238 11.9024C13.8651 10.7618 14.2857 9.46703 14.2857 8.01812C14.2857 6.56921 13.8611 5.28057 13.0119 4.15221C12.1627 3.02385 11.0635 2.2486 9.71429 1.82648V0C11.5556 0.405885 13.0635 1.35566 14.2381 2.84932C15.4127 4.34297 16 6.05581 16 7.98782C16 9.91984 15.4167 11.6367 14.25 13.1385C13.0833 14.6403 11.5714 15.5941 9.71429 16ZM0 10.3257V5.64992H3.42857L8 0.974125V15.0015L3.42857 10.3257H0ZM9.71429 11.6651V4.3105C10.4305 4.64171 10.9905 5.13851 11.3943 5.80091C11.7981 6.46332 12 7.19615 12 7.99942C12 8.78722 11.7981 9.51157 11.3943 10.1724C10.9905 10.8333 10.4305 11.3309 9.71429 11.6651ZM6.28571 5.21157L4.14286 7.40335H1.71429V8.5723H4.14286L6.28571 10.7641V5.21157Z" fill="white"/>
</g>
</svg>
