<svg width="16" height="16" viewBox="0 0 16 16" fill="none" xmlns="http://www.w3.org/2000/svg">
<mask id="mask0_45_62" style="mask-type:alpha" maskUnits="userSpaceOnUse" x="0" y="0" width="16" height="16">
<rect width="16" height="16" fill="#D9D9D9"/>
</mask>
<g mask="url(#mask0_45_62)">
<path d="M14.8107 17L12.3155 14.5048C11.9735 14.7225 11.5654 14.9284 11.0912 15.1228C10.6171 15.3171 10.1779 15.4609 9.77366 15.5542V13.8285C9.96022 13.7508 10.1818 13.6614 10.4383 13.5604C10.6948 13.4593 10.9086 13.3621 11.0796 13.2689L8.09465 10.284V14.6447L3.61728 10.1674H0.259259V5.68999H3.47737L-1 1.1893L0.1893 0L16 15.8107L14.8107 17ZM14.6708 12.1262L13.4582 10.9136C13.7069 10.4627 13.9012 9.98468 14.0412 9.47942C14.1811 8.97417 14.251 8.45725 14.251 7.92867C14.251 6.54504 13.8352 5.31299 13.0034 4.23251C12.1717 3.15203 11.0951 2.40969 9.77366 2.00549V0.279835C11.5926 0.637403 13.0734 1.53909 14.2161 2.98491C15.3587 4.43073 15.93 6.07865 15.93 7.92867C15.93 8.6749 15.8212 9.40169 15.6036 10.1091C15.3859 10.8164 15.075 11.4888 14.6708 12.1262ZM11.7792 9.23457L9.77366 7.22908V4.38409C10.4733 4.69502 11.0213 5.17307 11.4177 5.81824C11.8141 6.46342 12.0123 7.1669 12.0123 7.92867C12.0123 8.14632 11.9968 8.36397 11.9657 8.58162C11.9346 8.79927 11.8724 9.01692 11.7792 9.23457ZM8.09465 5.55007L5.92593 3.38134L8.09465 1.21262V5.55007ZM6.41564 10.5871V8.60494L4.73663 6.92593L4.31687 7.369H1.93827V8.48834H4.31687L6.41564 10.5871Z" fill="white"/>
</g>
</svg>
