<svg width="185" height="181" viewBox="0 0 185 181" fill="none" xmlns="http://www.w3.org/2000/svg">
<rect width="185" height="181" fill="black"/>
<g clip-path="url(#clip0_57_71)">
<path d="M149 35.2H36V145.8H149V35.2Z" stroke="white" stroke-width="3"/>
<path d="M54.1048 50.6646H46.7754V46.6481H66.2036V50.6646H58.8742V71.0965H54.1048V50.6646ZM69.0085 46.6481H86.7534V50.6646H73.7779V56.8466H85.7364V60.7932H73.7779V67.08H86.7534V71.0965H69.0085V46.6481ZM97.1495 46.6481H101.498L110.476 71.0965H105.636L103.637 65.6829H95.0103L93.0114 71.0965H88.1719L97.1495 46.6481ZM102.585 61.7712L99.3238 52.4808H99.2537L96.0975 61.7712H102.585ZM112.948 46.6481H117.366L124.661 62.4348H124.731L132.06 46.6481H136.478V71.0965H131.885V56.2179H131.815L126.169 67.6737H123.223L117.612 56.2179H117.542V71.0965H112.948V46.6481Z" fill="white"/>
<path d="M48.135 80.6042H65.8799V84.6207H52.9044V90.8027H64.8629V94.7494H52.9044V101.036H65.8799V105.053H48.135V80.6042ZM69.0517 101.036V84.6207L73.0846 80.6042H85.0782L89.041 84.5509V88.288H84.2716V86.2972L82.6234 84.6557H75.6096L73.8211 86.4369V99.2199L75.6096 101.001H82.6234L84.2716 99.3597V97.3689H89.041V101.106L85.0782 105.053H73.0846L69.0517 101.036ZM92.3822 80.6042H97.1516V90.8376H107.532V80.6042H112.301V105.053H107.532V94.8891H97.1516V105.053H92.3822V80.6042ZM116.518 101.036V84.6207L120.551 80.6042H133.176L137.209 84.6207V101.036L133.176 105.053H120.551L116.518 101.036ZM130.651 101.001L132.439 99.2199V86.4369L130.651 84.6557H123.076L121.288 86.4369V99.2199L123.076 101.001H130.651Z" fill="white"/>
<path fill-rule="evenodd" clip-rule="evenodd" d="M47.9631 107.963V120.769H65.708V116.753H52.7325V107.963H47.9631ZM68.8798 107.963V116.753L72.9128 120.769H84.9063L88.8691 116.823V113.086H84.0998V115.076L82.4515 116.718H75.4377L73.6492 114.937V107.963H68.8798ZM92.2103 107.963V120.769H96.9797V107.963H92.2103ZM107.36 107.963V120.769H112.129V107.963H107.36ZM116.346 107.963V116.753L120.379 120.769H133.004L137.037 116.753V107.963H132.268V114.937L130.479 116.718H122.904L121.116 114.937V107.963H116.346Z" fill="#D9D9D9" fill-opacity="0.9"/>
<path fill-rule="evenodd" clip-rule="evenodd" d="M47.9631 122.71V128.725H65.708V124.708H52.7325V122.71H47.9631ZM68.8798 122.71V124.708L72.9128 128.725H84.9063L88.8691 124.778V122.71H84.0998V123.032L82.4515 124.673H75.4377L73.6492 122.892V122.71H68.8798ZM92.2103 122.71V128.725H96.9797V122.71H92.2103ZM107.36 122.71V128.725H112.129V122.71H107.36ZM116.346 122.71V124.708L120.379 128.725H133.004L137.037 124.708V122.71H132.268V122.892L130.479 124.673H122.904L121.116 122.892V122.71H116.346Z" fill="#D9D9D9" fill-opacity="0.7"/>
<path fill-rule="evenodd" clip-rule="evenodd" d="M47.9631 129.695V133.77H65.708V129.753H52.7325V129.695H47.9631ZM68.8798 129.695V129.753L72.9128 133.77H84.9063L88.8691 129.823V129.695H82.4749L82.4515 129.718H75.4377L75.4143 129.695H68.8798ZM92.2103 129.695V133.77H96.9797V129.695H92.2103ZM107.36 129.695V133.77H112.129V129.695H107.36ZM116.346 129.695V129.753L120.379 133.77H133.004L137.037 129.753V129.695H130.502L130.479 129.718H122.904L122.881 129.695H116.346Z" fill="#D9D9D9" fill-opacity="0.4"/>
</g>
<defs>
<clipPath id="clip0_57_71">
<rect width="113" height="110.6" fill="white" transform="translate(36 35.2)"/>
</clipPath>
</defs>
</svg>
