<svg width="116" height="114" viewBox="0 0 116 114" fill="none" xmlns="http://www.w3.org/2000/svg">
<rect x="1.5" y="1.5" width="113" height="110.6" stroke="white" stroke-width="3"/>
<path d="M18.5855 15.94H11.0615V11.8H31.0055V15.94H23.4815V37H18.5855V15.94ZM33.8849 11.8H52.1009V15.94H38.7809V22.312H51.0569V26.38H38.7809V32.86H52.1009V37H33.8849V11.8ZM62.773 11.8H67.237L76.453 37H71.485L69.433 31.42H60.577L58.525 37H53.557L62.773 11.8ZM68.353 27.388L65.005 17.812H64.933L61.693 27.388H68.353ZM78.9904 11.8H83.5264L91.0144 28.072H91.0864L98.6104 11.8H103.146V37H98.4304V21.664H98.3584L92.5624 33.472H89.5384L83.7784 21.664H83.7064V37H78.9904V11.8Z" fill="white"/>
<path d="M12.4572 46.8H30.6732V50.94H17.3532V57.312H29.6292V61.38H17.3532V67.86H30.6732V72H12.4572V46.8ZM33.9292 67.86V50.94L38.0692 46.8H50.3812L54.4492 50.868V54.72H49.5532V52.668L47.8612 50.976H40.6612L38.8252 52.812V65.988L40.6612 67.824H47.8612L49.5532 66.132V64.08H54.4492V67.932L50.3812 72H38.0692L33.9292 67.86ZM57.8791 46.8H62.7751V57.348H73.4311V46.8H78.3271V72H73.4311V61.524H62.7751V72H57.8791V46.8ZM82.6558 67.86V50.94L86.7958 46.8H99.7558L103.896 50.94V67.86L99.7558 72H86.7958L82.6558 67.86ZM97.1638 67.824L98.9998 65.988V52.812L97.1638 50.976H89.3878L87.5518 52.812V65.988L89.3878 67.824H97.1638Z" fill="white"/>
<path fill-rule="evenodd" clip-rule="evenodd" d="M12.2807 75V88.2H30.4967V84.06H17.1767V75H12.2807ZM33.7527 75V84.06L37.8927 88.2H50.2047L54.2727 84.132V80.28H49.3767V82.332L47.6847 84.024H40.4847L38.6487 82.188V75H33.7527ZM57.7026 75V88.2H62.5986V75H57.7026ZM73.2546 75V88.2H78.1506V75H73.2546ZM82.4793 75V84.06L86.6193 88.2H99.5793L103.719 84.06V75H98.8233V82.188L96.9873 84.024H89.2113L87.3753 82.188V75H82.4793Z" fill="#D9D9D9" fill-opacity="0.9"/>
<path fill-rule="evenodd" clip-rule="evenodd" d="M12.2807 90.2V96.4H30.4967V92.26H17.1767V90.2H12.2807ZM33.7527 90.2V92.26L37.8927 96.4H50.2047L54.2727 92.332V90.2H49.3767V90.532L47.6847 92.224H40.4847L38.6487 90.388V90.2H33.7527ZM57.7026 90.2V96.4H62.5986V90.2H57.7026ZM73.2546 90.2V96.4H78.1506V90.2H73.2546ZM82.4793 90.2V92.26L86.6193 96.4H99.5793L103.719 92.26V90.2H98.8233V90.388L96.9873 92.224H89.2113L87.3753 90.388V90.2H82.4793Z" fill="#D9D9D9" fill-opacity="0.7"/>
<path fill-rule="evenodd" clip-rule="evenodd" d="M12.2807 97.4V101.6H30.4967V97.46H17.1767V97.4H12.2807ZM33.7527 97.4V97.46L37.8927 101.6H50.2047L54.2727 97.532V97.4H47.7087L47.6847 97.424H40.4847L40.4607 97.4H33.7527ZM57.7026 97.4V101.6H62.5986V97.4H57.7026ZM73.2546 97.4V101.6H78.1506V97.4H73.2546ZM82.4793 97.4V97.46L86.6193 101.6H99.5793L103.719 97.46V97.4H97.0113L96.9873 97.424H89.2113L89.1873 97.4H82.4793Z" fill="#D9D9D9" fill-opacity="0.4"/>
</svg>
